<?xml version="1.0" encoding="utf-8"?>
<!-- Generator: Adobe Illustrator 16.0.0, SVG Export Plug-In . SVG Version: 6.00 Build 0)  -->
<!DOCTYPE svg PUBLIC "-//W3C//DTD SVG 1.1//EN" "http://www.w3.org/Graphics/SVG/1.1/DTD/svg11.dtd">
<svg version="1.1" xmlns="http://www.w3.org/2000/svg" xmlns:xlink="http://www.w3.org/1999/xlink" x="0px" y="0px"
	 width="476.221px" height="141.732px" viewBox="0 0 476.221 141.732" enable-background="new 0 0 476.221 141.732"
	 xml:space="preserve">
<g id="レイヤー_1">
	<rect fill="#61AFD1" width="85.039" height="141.732"/>
	<g>
		<g>
			<path fill="#FFFFFF" d="M28.299,64.832h-2.291v-0.703c0-0.328-0.029-0.537-0.088-0.627s-0.156-0.135-0.293-0.135
				c-0.148,0-0.261,0.061-0.337,0.182c-0.076,0.122-0.114,0.305-0.114,0.551c0,0.317,0.043,0.555,0.128,0.715
				c0.082,0.16,0.314,0.354,0.697,0.58c1.098,0.652,1.79,1.187,2.075,1.604s0.428,1.092,0.428,2.021
				c0,0.676-0.079,1.174-0.237,1.494s-0.464,0.589-0.917,0.806s-0.98,0.325-1.582,0.325c-0.66,0-1.224-0.125-1.69-0.375
				s-0.772-0.568-0.917-0.955s-0.217-0.936-0.217-1.646v-0.621h2.291v1.154c0,0.355,0.032,0.584,0.097,0.686
				s0.179,0.152,0.343,0.152s0.286-0.064,0.366-0.193s0.12-0.32,0.12-0.574c0-0.559-0.076-0.924-0.229-1.096
				c-0.156-0.172-0.541-0.459-1.154-0.861c-0.613-0.406-1.02-0.701-1.219-0.885s-0.364-0.438-0.495-0.762s-0.196-0.738-0.196-1.242
				c0-0.727,0.093-1.258,0.278-1.594s0.485-0.599,0.899-0.788s0.914-0.284,1.5-0.284c0.641,0,1.187,0.104,1.638,0.311
				s0.75,0.468,0.896,0.782s0.22,0.849,0.22,1.603V64.832z"/>
			<path fill="#FFFFFF" d="M29.277,61.961h4.113v1.898h-1.646v1.799h1.541v1.805h-1.541v2.086h1.811v1.898h-4.277V61.961z"/>
			<path fill="#FFFFFF" d="M40.023,66.092h-2.467v-1.649c0-0.479-0.026-0.778-0.079-0.897c-0.053-0.119-0.169-0.178-0.349-0.178
				c-0.203,0-0.332,0.072-0.387,0.217s-0.082,0.457-0.082,0.938v4.406c0,0.461,0.027,0.762,0.082,0.902s0.178,0.211,0.369,0.211
				c0.184,0,0.304-0.07,0.36-0.211s0.085-0.472,0.085-0.993v-1.192h2.467v0.37c0,0.982-0.069,1.678-0.208,2.089
				c-0.139,0.411-0.445,0.771-0.92,1.08s-1.06,0.463-1.755,0.463c-0.723,0-1.318-0.131-1.787-0.393s-0.779-0.624-0.932-1.087
				s-0.229-1.159-0.229-2.089v-2.771c0-0.684,0.023-1.196,0.07-1.538s0.187-0.671,0.419-0.987s0.555-0.565,0.967-0.747
				s0.886-0.272,1.421-0.272c0.727,0,1.326,0.141,1.799,0.421s0.783,0.631,0.932,1.05s0.223,1.072,0.223,1.957V66.092z"/>
			<path fill="#FFFFFF" d="M45.877,61.961v1.898h-1.465v7.588h-2.467v-7.588h-1.459v-1.898H45.877z"/>
			<path fill="#FFFFFF" d="M48.906,61.961v9.486h-2.467v-9.486H48.906z"/>
			<path fill="#FFFFFF" d="M55.533,67.516c0,0.953-0.022,1.628-0.067,2.024s-0.186,0.759-0.422,1.087s-0.556,0.58-0.958,0.756
				s-0.871,0.264-1.406,0.264c-0.508,0-0.964-0.083-1.368-0.249s-0.729-0.415-0.976-0.747s-0.393-0.693-0.439-1.084
				s-0.07-1.074-0.07-2.051v-1.623c0-0.953,0.022-1.628,0.067-2.024s0.186-0.759,0.422-1.087s0.556-0.58,0.958-0.756
				s0.871-0.264,1.406-0.264c0.508,0,0.964,0.083,1.368,0.249s0.729,0.415,0.976,0.747s0.393,0.693,0.439,1.084
				s0.07,1.074,0.07,2.051V67.516z M53.066,64.398c0-0.441-0.024-0.724-0.073-0.847s-0.149-0.185-0.302-0.185
				c-0.129,0-0.228,0.05-0.296,0.149s-0.103,0.394-0.103,0.882v4.43c0,0.551,0.022,0.891,0.067,1.02s0.149,0.193,0.313,0.193
				c0.168,0,0.275-0.074,0.322-0.223s0.07-0.502,0.07-1.061V64.398z"/>
			<path fill="#FFFFFF" d="M61.961,61.961v9.486h-2.162l-1.283-4.312v4.312h-2.062v-9.486h2.062l1.383,4.271v-4.271H61.961z"/>
		</g>
		<rect x="85.039" y="59.527" fill="#C9CACA" width="391.182" height="14.173"/>
		<g>
			<g>
				
					<line fill="none" stroke="#FFFFFF" stroke-width="0.4252" stroke-miterlimit="10" x1="85.289" y1="59.527" x2="85.077" y2="59.527"/>
				
					<line fill="none" stroke="#FFFFFF" stroke-width="0.4252" stroke-miterlimit="10" stroke-dasharray="0.4252,0.4252" x1="84.651" y1="59.527" x2="0.675" y2="59.527"/>
				
					<line fill="none" stroke="#FFFFFF" stroke-width="0.4252" stroke-miterlimit="10" x1="0.462" y1="59.527" x2="0.25" y2="59.527"/>
			</g>
		</g>
		<g>
			<g>
				
					<line fill="none" stroke="#FFFFFF" stroke-width="0.4252" stroke-miterlimit="10" x1="85.289" y1="73.7" x2="85.077" y2="73.7"/>
				
					<line fill="none" stroke="#FFFFFF" stroke-width="0.4252" stroke-miterlimit="10" stroke-dasharray="0.4252,0.4252" x1="84.651" y1="73.7" x2="0.675" y2="73.7"/>
				<line fill="none" stroke="#FFFFFF" stroke-width="0.4252" stroke-miterlimit="10" x1="0.462" y1="73.7" x2="0.25" y2="73.7"/>
			</g>
		</g>
	</g>
	<rect x="0.001" y="-29.764" fill="none" width="480.334" height="59.527"/>
</g>
<g id="レイヤー_2" display="none">
	<g display="inline">
		<path fill="#FFFFFF" d="M50.755,94.917v9.343c0,2.123-0.116,3.668-0.346,4.637c-0.231,0.969-0.709,1.875-1.436,2.716
			c-0.727,0.842-1.603,1.448-2.63,1.817c-1.026,0.369-2.174,0.553-3.443,0.553c-1.672,0-3.062-0.193-4.169-0.58
			c-1.107-0.386-1.99-0.989-2.647-1.808c-0.658-0.819-1.125-1.681-1.401-2.587c-0.277-0.905-0.416-2.344-0.416-4.316v-9.775
			c0-2.572,0.222-4.498,0.666-5.778c0.444-1.281,1.327-2.307,2.647-3.08c1.32-0.772,2.921-1.159,4.801-1.159
			c1.534,0,2.907,0.269,4.118,0.805c1.211,0.536,2.117,1.191,2.716,1.964s1.006,1.644,1.22,2.612S50.755,92.795,50.755,94.917z
			 M43.765,92.564c0-1.488-0.072-2.419-0.216-2.794c-0.145-0.375-0.482-0.562-1.012-0.562c-0.519,0-0.862,0.199-1.029,0.597
			c-0.167,0.398-0.251,1.318-0.251,2.759v13.668c0,1.626,0.078,2.607,0.233,2.941c0.156,0.334,0.493,0.502,1.012,0.502
			s0.859-0.196,1.021-0.588c0.161-0.392,0.242-1.274,0.242-2.647V92.564z"/>
	</g>
	<g display="inline">
		<path d="M119.337,94.995c-0.04,0.079-0.079,0.178-0.178,0.258c-0.258,5.713-0.813,9.303-1.587,10.711
			c-0.793,1.369-1.944,1.428-2.599,1.428c-0.774,0-2.182-0.179-3.551-0.456c0.04-0.397,0-0.992-0.06-1.409
			c1.488,0.337,3.015,0.496,3.471,0.496c0.714,0,1.111-0.179,1.527-0.932c0.595-1.21,1.091-4.543,1.29-9.006h-6.348
			c-0.992,4.741-2.956,8.668-6.546,11.366c-0.238-0.258-0.754-0.635-1.131-0.873c3.432-2.579,5.237-5.971,6.189-10.493h-5.475
			v-1.329h5.752c0.238-1.408,0.357-2.678,0.456-4.324l1.964,0.159c-0.02,0.218-0.198,0.337-0.496,0.357
			c-0.119,1.448-0.218,2.539-0.437,3.809h6.427l0.317-0.119L119.337,94.995z"/>
		<path d="M139.179,96.76c-0.04,0.08-0.139,0.159-0.258,0.198c-1.626,5.991-4.939,8.907-10.87,10.553
			c-0.179-0.357-0.556-0.853-0.833-1.15c5.396-1.349,8.748-4.126,9.998-8.728h-13.131v-1.349h13.727l0.198-0.119L139.179,96.76z
			 M137.314,92.515h-11.307v-1.309h11.307V92.515z"/>
		<path d="M143.212,97.911h16.563v1.409h-15.81c-0.119,0.198-0.377,0.337-0.635,0.377L143.212,97.911z"/>
		<path d="M179.935,93.566c-0.06,0.1-0.159,0.159-0.297,0.199c-1.845,2.817-4.959,5.772-8.014,7.974
			c1.527,1.23,3.055,2.757,4.066,3.868l-1.21,1.051c-2.083-2.44-5.991-5.713-9.343-7.677l0.952-1.012
			c1.408,0.793,2.995,1.845,4.423,2.936c2.678-1.904,5.396-4.463,6.963-6.764h-14.56v-1.349h15.611l0.238-0.119L179.935,93.566z"/>
		<path d="M197.218,94.955c-0.059,0.099-0.178,0.159-0.357,0.179c-1.27,1.587-2.976,3.293-4.8,4.701l0.317,0.079
			c-0.04,0.1-0.179,0.258-0.437,0.278v7.558h-1.408v-6.883c-2.023,1.389-4.642,2.797-7.082,3.769
			c-0.1-0.139-0.754-0.952-0.913-1.111c4.8-1.785,9.363-4.741,12.081-7.915h-10.038v-1.29h11.366l0.218-0.139L197.218,94.955z
			 M193.945,93.408c-1.726-0.913-4.423-1.805-6.526-2.4l0.654-1.15c2.123,0.516,4.8,1.468,6.605,2.34L193.945,93.408z
			 M194.084,99.775c1.983,1.032,4.364,2.52,5.792,3.65l-1.012,1.071c-1.329-1.111-3.789-2.718-5.693-3.729L194.084,99.775z"/>
		<path d="M202.739,97.911h16.563v1.409h-15.81c-0.119,0.198-0.377,0.337-0.635,0.377L202.739,97.911z"/>
		<path d="M223.375,96.086c1.785,0.396,4.007,1.15,5.336,1.785l-0.595,1.25c-1.309-0.635-3.59-1.429-5.336-1.825L223.375,96.086z
			 M224.565,105.786c6.367-2.143,10.87-5.634,13.489-11.545c0.297,0.258,0.893,0.694,1.21,0.893
			c-2.658,5.852-7.359,9.581-13.35,11.704c0.06,0.178-0.06,0.417-0.218,0.496L224.565,105.786z M225.557,91.167
			c1.785,0.476,3.967,1.27,5.316,1.944l-0.654,1.21c-1.409-0.714-3.472-1.507-5.257-2.003L225.557,91.167z M234.84,90.512
			c0.813,0.694,1.944,1.924,2.559,2.876l-0.773,0.575c-0.556-0.853-1.706-2.182-2.52-2.896L234.84,90.512z M237.597,89.302
			c0.813,0.694,1.944,1.944,2.579,2.856l-0.773,0.575c-0.595-0.873-1.706-2.142-2.519-2.856L237.597,89.302z"/>
		<path d="M246.192,94.539c1.865,0.813,3.828,1.805,5.633,2.856c1.27-1.904,2.579-4.404,3.571-6.923l1.944,0.793
			c-0.079,0.179-0.357,0.278-0.714,0.238c-0.913,2.103-2.202,4.602-3.531,6.625c1.528,0.952,3.115,2.023,4.325,3.055l-0.952,1.25
			c-1.091-0.952-2.579-2.043-4.226-3.095c-2.043,2.916-5.019,5.872-8.391,8.113c-0.238-0.297-0.793-0.773-1.131-0.992
			c3.313-2.143,6.348-5.098,8.312-7.835c-1.805-1.071-3.729-2.083-5.594-2.916L246.192,94.539z"/>
		<path d="M263.813,91.92c2.063,0.654,4.443,1.686,5.911,2.698l-0.754,1.25c-1.428-1.012-3.769-2.063-5.792-2.757L263.813,91.92z
			 M263.733,105.667c7.042-2.182,11.724-6.129,14.104-11.624c0.417,0.337,0.873,0.595,1.289,0.813
			c-2.479,5.435-7.319,9.661-14.044,11.902c-0.02,0.179-0.139,0.377-0.278,0.456L263.733,105.667z"/>
		<path d="M296.093,100.866c-2.023-1.091-4.801-2.38-6.963-3.233v9.918h-1.487V90.313l2.003,0.119
			c-0.02,0.218-0.179,0.357-0.516,0.417v5.792l0.298-0.417c2.321,0.853,5.396,2.222,7.458,3.313L296.093,100.866z"/>
		<path d="M303.676,92.714c0.754,1.468,1.627,3.848,1.904,5.276l-1.329,0.437c-0.277-1.389-1.11-3.749-1.864-5.296L303.676,92.714z
			 M318.533,92.952c-0.06,0.179-0.258,0.258-0.516,0.258c-2.083,7.002-5.336,11.287-11.545,14.004
			c-0.198-0.277-0.654-0.813-0.952-1.091c6.07-2.559,9.185-6.546,11.148-13.767L318.533,92.952z M309.964,91.583
			c0.456,1.646,0.952,4.106,1.052,5.634l-1.408,0.218c-0.119-1.567-0.556-3.947-1.032-5.613L309.964,91.583z"/>
		<path d="M321.793,97.911h16.563v1.409h-15.81c-0.119,0.198-0.377,0.337-0.635,0.377L321.793,97.911z"/>
		<path d="M346.179,93.428c-0.021,0.179-0.198,0.298-0.457,0.337c-0.118,5.336-0.555,10.196-3.609,13.747
			c-0.317-0.238-0.794-0.536-1.19-0.754c2.955-3.213,3.312-8.172,3.372-13.509L346.179,93.428z M351.316,104.854
			c3.312-1.606,5.455-4.503,6.605-7.974c0.297,0.258,0.893,0.595,1.229,0.773c-1.408,4.007-3.868,6.963-8.093,8.966
			c-0.06,0.159-0.199,0.317-0.338,0.396l-1.031-1.309l0.218-0.297v-14.56l1.845,0.099c-0.02,0.179-0.158,0.337-0.436,0.377V104.854z
			"/>
		<path d="M371.02,93.368c-0.079,0.179-0.237,0.317-0.495,0.317c-0.715,6.169-2.777,11.545-6.07,11.545
			c-1.666,0-3.174-1.666-3.174-4.8c0-4.761,3.709-8.748,8.927-8.748c5.732,0,8.212,3.63,8.212,7.498
			c0,4.721-2.737,7.002-7.538,8.113c-0.179-0.317-0.516-0.853-0.833-1.21c4.562-0.873,6.903-3.095,6.903-6.844
			c0-3.273-2.103-6.249-6.744-6.249c-0.199,0-0.417,0.02-0.596,0.04L371.02,93.368z M369.115,93.11
			c-4.007,0.496-6.486,3.809-6.486,7.28c0,2.122,0.913,3.451,1.865,3.451C366.894,103.842,368.62,98.545,369.115,93.11z"/>
		<path d="M384.356,96.958c0.476,0.754,1.745,2.956,2.043,3.511l-0.714,0.992c-0.238-0.635-0.833-1.904-1.329-2.896v9.581h-1.19
			v-9.521c-0.595,2.202-1.349,4.344-2.162,5.673c-0.139-0.337-0.456-0.813-0.654-1.091c1.071-1.706,2.201-4.999,2.697-7.815h-2.32
			v-1.23h2.439v-4.423l1.567,0.099c-0.021,0.139-0.119,0.238-0.377,0.278v4.046h1.885v1.23h-1.885V96.958z M390.327,100.589
			c0.873,1.289,1.825,3.015,2.202,4.086l-1.032,0.536c-0.099-0.277-0.237-0.615-0.396-0.972c-1.745,0.674-3.491,1.329-4.642,1.765
			c-0.02,0.159-0.1,0.258-0.218,0.317l-0.615-1.388l1.31-0.397V90.532h4.701v8.549h-3.531v5.059
			c0.813-0.258,1.666-0.556,2.539-0.853c-0.396-0.774-0.854-1.587-1.289-2.261L390.327,100.589z M390.485,91.682h-2.38v2.539h2.38
			V91.682z M388.105,97.911h2.38v-2.579h-2.38V97.911z M396.357,106.183c0,0.754,0.1,0.833,0.476,0.833h0.596
			c0.456,0,0.635-0.198,0.694-0.654c0.039-0.337,0.039-1.052,0.06-2.004c0.237,0.199,0.635,0.397,0.952,0.496
			c-0.06,2.4-0.119,3.174-1.627,3.174h-0.912c-1.429,0-1.429-0.833-1.429-2.003v-2.797c-1.071,1.983-2.599,3.689-4.82,4.959
			c-0.158-0.258-0.535-0.674-0.773-0.913c3.353-1.825,5.019-4.721,5.911-8.113h-3.312V98.01h1.091v-6.328h-0.912v-1.15h6.427v1.15
			h-1.091c-0.139,2.162-0.337,4.305-0.754,6.328h2.043v1.151h-2.301c-0.119,0.496-0.238,0.972-0.396,1.428l0.476,0.04
			c-0.02,0.119-0.139,0.218-0.396,0.258V106.183z M394.354,98.01h1.389c0.417-2.003,0.596-4.146,0.734-6.328h-2.123V98.01z"/>
		<path d="M418.699,101.958h-4.046c-0.615,1.329-1.488,2.4-2.658,3.273c2.36,0.595,4.503,1.25,6.09,1.865l-0.813,1.111
			c-1.746-0.714-4.066-1.448-6.686-2.123c-2.261,1.15-5.336,1.785-9.362,2.083c-0.1-0.396-0.317-0.893-0.535-1.19
			c3.312-0.179,5.931-0.595,7.974-1.349c-1.289-0.297-2.599-0.575-3.947-0.833l-0.456,0.595l-1.25-0.456
			c0.635-0.813,1.429-1.865,2.202-2.976h-4.801v-1.15h5.594c0.477-0.694,0.933-1.389,1.329-2.003h-5.197v-5.138h4.464v-1.805h-6.03
			v-1.21h17.991v1.21h-6.149v1.805h4.603v5.138h-8.907l0.952,0.258C409,99.2,408.86,99.26,408.583,99.24
			c-0.317,0.476-0.654,1.012-1.031,1.567h11.147V101.958z M403.405,94.796v2.876h3.194v-2.876H403.405z M406.758,101.958
			c-0.437,0.635-0.893,1.27-1.329,1.865c1.667,0.297,3.333,0.635,4.92,1.012c1.229-0.734,2.142-1.667,2.797-2.876H406.758z
			 M407.869,91.861v1.805h3.253v-1.805H407.869z M407.869,97.673h3.253v-2.876h-3.253V97.673z M415.685,94.796h-3.273v2.876h3.273
			V94.796z"/>
	</g>
</g>
</svg>
