<svg xmlns="http://www.w3.org/2000/svg" width="63" height="782" font-family="Hiragino Sans, Yu Gothic, sans-serif">
  <g>
    <polygon points="0,0 64,0 64,104 48,120 0,120" fill="#0075c2" />    
    <text x="42" y="40" fill="white" writing-mode="vertical-rl" font-size="17">
      <tspan>第１部</tspan>
    </text>
  </g>
  <g transform="translate(0,198)">
    <polygon points="0,0 56,0 64,8 64,134 56,142 0,142" fill="#dddddd" />
    <text x="26" y="20" fill="white" font-size="9">
      <tspan>第</tspan><tspan font-size="14">１</tspan><tspan>節</tspan>
    </text>
    <line x1="26" y1="26" x2="58" y2="26" stroke="white" stroke-width="1"/>
    <text x="42" y="31" fill="white" writing-mode="vertical-rl" font-size="10">
      <tspan>前契約の確認</tspan>
    </text>
  </g>
  <g transform="translate(0,344)">
    <polygon points="0,0 56,0 64,8 64,134 56,142 0,142" fill="#0075c2" />
    <text x="26" y="20" fill="white" font-size="9">
      <tspan>第</tspan><tspan font-size="14">２</tspan><tspan>節</tspan>
    </text>
    <line x1="26" y1="26" x2="58" y2="26" stroke="white" stroke-width="1"/>
    <text x="42" y="31" fill="white" writing-mode="vertical-rl" font-size="10">
      <tspan>基本事項の確認</tspan>
    </text>
  </g>
  <g transform="translate(0,490)">
    <polygon points="0,0 56,0 64,8 64,134 56,142 0,142" fill="#dddddd" />
    <text x="26" y="20" fill="white" font-size="9">
      <tspan>第</tspan><tspan font-size="14">３</tspan><tspan>節</tspan>
    </text>
    <line x1="26" y1="26" x2="58" y2="26" stroke="white" stroke-width="1"/>
    <text x="42" y="31" fill="white" writing-mode="vertical-rl" font-size="10">
      <tspan dx="5" y="31">保険料計算必要事項の</tspan>
      <tspan dx="-13" y="31">確認</tspan>
    </text>
  </g>
  <g transform="translate(0,636)">
    <polygon points="0,0 56,0 64,8 64,134 56,142 0,142" fill="#dddddd" />
    <text x="26" y="20" fill="white" font-size="9">
      <tspan>第</tspan><tspan font-size="14">４</tspan><tspan>節</tspan>
    </text>
    <line x1="26" y1="26" x2="58" y2="26" stroke="white" stroke-width="1"/>
    <text x="42" y="31" fill="white" writing-mode="vertical-rl" font-size="10">
      <tspan dx="5" y="31">複数台ご契約の</tspan>
      <tspan dx="-13" y="31">お客さまへの対応</tspan>
    </text>
  </g>
</svg>